<svg xmlns="http://www.w3.org/2000/svg" viewBox="0 0 800 600">
  <defs>
    <linearGradient id="sky6" x1="0" y1="0" x2="0" y2="1">
      <stop offset="0" stop-color="#b0cfe4"/><stop offset="1" stop-color="#eef6fb"/>
    </linearGradient>
    <linearGradient id="glass" x1="0" y1="0" x2="1" y2="1">
      <stop offset="0" stop-color="#bfe0f2"/><stop offset="1" stop-color="#7fb5d8"/>
    </linearGradient>
  </defs>
  <rect width="800" height="600" fill="url(#sky6)"/>
  <ellipse cx="400" cy="575" rx="430" ry="120" fill="#b3c9d6"/>
  <rect x="240" y="240" width="320" height="210" rx="6" fill="#cfd8de"/>
  <rect x="210" y="300" width="60" height="130" rx="4" fill="#cfd8de"/>
  <rect x="500" y="380" width="70" height="52" rx="4" fill="#cfd8de"/>
  <rect x="265" y="265" width="70" height="52" rx="4" fill="url(#glass)" stroke="#8fa3b3" stroke-width="4"/>
  <rect x="350" y="265" width="56" height="52" rx="4" fill="url(#glass)" stroke="#8fa3b3" stroke-width="4"/>
  <rect x="421" y="265" width="56" height="52" rx="4" fill="url(#glass)" stroke="#8fa3b3" stroke-width="4"/>
  <rect x="265" y="340" width="70" height="52" rx="4" fill="url(#glass)" stroke="#8fa3b3" stroke-width="4"/>
  <rect x="350" y="340" width="56" height="52" rx="4" fill="url(#glass)" stroke="#8fa3b3" stroke-width="4"/>
  <rect x="421" y="340" width="56" height="52" rx="4" fill="url(#glass)" stroke="#8fa3b3" stroke-width="4"/>
  <rect x="240" y="430" width="150" height="50" fill="#a9b6c2"/>
  <path d="M260 450 h310" stroke="#8fa3b3" stroke-width="5"/>
  <circle cx="120" cy="250" r="32" fill="#5e8f4e"/>
  <circle cx="660" cy="250" r="40" fill="#5e8f4e"/>
  <circle cx="500" cy="170" r="16" fill="#ffe08a"/>
  <path d="M0 550 h800 v50 H0 Z" fill="#93a7b5"/>
</svg>